HIERARCHY
ROOT Hip
{
	OFFSET 0.000000 0.000000 0.000000 
	CHANNELS 6 Xposition Yposition Zposition Xrotation Yrotation Zrotation
	JOINT LowerSpine
	{
		OFFSET 0.000000 8.345300 -5.129200 
		CHANNELS 3 Xrotation Yrotation Zrotation
		JOINT MiddleSpine
		{
			OFFSET 10.856900 0.000000 0.000000 
			CHANNELS 3 Xrotation Yrotation Zrotation
			JOINT Chest
			{
				OFFSET 15.298400 0.000000 0.000000 
				CHANNELS 3 Xrotation Yrotation Zrotation
				JOINT Neck
				{
					OFFSET 25.661800 -0.598600 0.000000 
					CHANNELS 3 Xrotation Yrotation Zrotation
					JOINT Head
					{
						OFFSET 8.882900 0.000000 0.000000 
						CHANNELS 3 Xrotation Yrotation Zrotation
						End Site
						{
							OFFSET 19.739901 0.000000 0.000000 
						}
					}
				}
				JOINT RClavicle
				{
					OFFSET 23.687799 0.000000 3.158400 
					CHANNELS 3 Xrotation Yrotation Zrotation
					JOINT RShoulder
					{
						OFFSET -15.594500 -3.948000 0.987000 
						CHANNELS 3 Xrotation Yrotation Zrotation
						JOINT RForearm
						{
							OFFSET -31.337000 0.000000 0.197400 
							CHANNELS 3 Xrotation Yrotation Zrotation
							JOINT RHand
							{
								OFFSET -26.402100 0.000000 0.000000 
								CHANNELS 3 Xrotation Yrotation Zrotation
								End Site
								{
									OFFSET -15.791900 -0.987000 0.000000 
								}
							}
						}
					}
				}
				JOINT LClavicle
				{
					OFFSET 23.687799 0.000000 -3.158400 
					CHANNELS 3 Xrotation Yrotation Zrotation
					JOINT LShoulder
					{
						OFFSET -15.594500 -3.948000 -0.987000 
						CHANNELS 3 Xrotation Yrotation Zrotation
						JOINT LForearm
						{
							OFFSET -31.337000 0.000000 -0.197400 
							CHANNELS 3 Xrotation Yrotation Zrotation
							JOINT LHand
							{
								OFFSET -26.402100 0.000000 0.000000 
								CHANNELS 3 Xrotation Yrotation Zrotation
								End Site
								{
									OFFSET -15.791900 -0.987000 0.000000 
								}
							}
						}
					}
				}
			}
		}
	}
	JOINT RThigh
	{
		OFFSET -8.882900 0.448100 0.000000 
		CHANNELS 3 Xrotation Yrotation Zrotation
		JOINT RShin
		{
			OFFSET 43.131599 0.000000 -0.493500 
			CHANNELS 3 Xrotation Yrotation Zrotation
			JOINT RFoot
			{
				OFFSET 0.000000 -44.725601 -0.404700 
				CHANNELS 3 Xrotation Yrotation Zrotation
				JOINT RToe
				{
					OFFSET 0.000000 -3.933200 12.195300 
					CHANNELS 3 Xrotation Yrotation Zrotation
					End Site
					{
						OFFSET 6.772500 0.000000 0.000000 
					}
				}
			}
		}
	}
	JOINT LThigh
	{
		OFFSET 8.882900 0.448100 0.000000 
		CHANNELS 3 Xrotation Yrotation Zrotation
		JOINT LShin
		{
			OFFSET 43.131599 0.000000 0.493500 
			CHANNELS 3 Xrotation Yrotation Zrotation
			JOINT LFoot
			{
				OFFSET 0.000000 -44.725601 0.404700 
				CHANNELS 3 Xrotation Yrotation Zrotation
				JOINT LToe
				{
					OFFSET 0.000000 -3.933200 -12.195300 
					CHANNELS 3 Xrotation Yrotation Zrotation
					End Site
					{
						OFFSET 6.772500 0.000000 0.000000 
					}
				}
			}
		}
	}
}
MOTION
Frames: 11
Frame Time: 0.009949
4.508262 92.500473 -9.150035 -1.131124 4.889034 -1.136332 -89.999992 -90.000000 0.000000 -0.063565 -0.789390 -1.326163 -0.317106 -2.619604 -4.431580 0.000000 0.000000 0.000000 0.000000 0.000000 0.000000 90.015198 -0.505045 -83.203255 15.032825 32.033764 67.673630 1.672306 18.102859 -6.176891 0.000000 0.000000 0.000000 -90.008949 0.525292 -82.937622 -7.175522 -34.673546 67.653763 -2.336092 -23.751646 -6.410311 0.000000 0.000000 0.000000 -104.278687 86.999771 20.945797 89.984917 1.673268 89.998718 -6.456273 -0.499546 -0.222588 179.448334 90.000000 0.000000 -68.262817 83.674263 -28.356949 -89.849258 -16.418943 90.008003 7.023910 -0.034320 0.037803 181.505829 -90.000000 0.000000 
5.080585 92.549721 -8.735005 -1.343582 4.745185 -1.272993 -89.999992 -90.000000 0.000000 -0.055012 -0.780841 -1.449154 -0.296468 -2.591080 -4.840839 0.000000 0.000000 0.000000 0.000000 0.000000 0.000000 90.014572 -0.499279 -83.281113 15.083989 32.355877 67.352829 1.702427 18.361862 -6.187143 0.000000 0.000000 0.000000 -90.010025 0.536746 -82.783051 -7.769633 -34.297768 67.708435 -2.246609 -23.035675 -6.372607 0.000000 0.000000 0.000000 -102.197357 87.242310 19.634932 89.989990 1.107558 89.999039 -5.996058 -0.314953 -0.127524 179.044006 90.000000 0.000000 -69.782516 83.919662 -26.163723 -89.852051 -16.149805 90.007050 7.324856 0.457745 -0.215240 181.493790 -90.000000 0.000000 
5.588007 92.597771 -8.380676 -1.553453 4.621146 -1.351928 -89.999992 -90.000000 0.000000 -0.049121 -0.765704 -1.559528 -0.282195 -2.540494 -5.208068 0.000000 0.000000 0.000000 0.000000 0.000000 0.000000 90.014000 -0.499690 -83.276016 15.281534 32.481174 66.868431 1.831087 19.451338 -6.233458 0.000000 0.000000 0.000000 -90.010719 0.544351 -82.680435 -8.386772 -33.929550 67.629448 -2.212920 -22.763878 -6.358686 0.000000 0.000000 0.000000 -97.806435 87.508698 15.757506 89.991684 0.917468 89.999146 -5.795977 0.129512 0.083523 178.926697 90.000000 0.000000 -71.441818 84.188042 -23.860832 -89.855614 -15.802603 90.005936 7.541659 0.965539 -0.474927 181.352371 -90.000000 0.000000 
6.033430 92.641617 -8.093545 -1.680181 4.629712 -1.462973 -89.999992 -90.000000 0.000000 -0.048924 -0.744213 -1.655931 -0.284271 -2.468104 -5.529004 0.000000 0.000000 0.000000 0.000000 0.000000 0.000000 90.013565 -0.508410 -83.159225 15.579670 32.467735 66.287071 2.040885 21.193962 -6.313631 0.000000 0.000000 0.000000 -90.010895 0.547215 -82.641876 -9.082148 -33.467018 67.400688 -2.207606 -22.721069 -6.356480 0.000000 0.000000 0.000000 -88.207993 87.632370 6.323586 89.989754 1.133842 89.999001 -5.708816 0.782692 0.388895 178.733780 90.000000 0.000000 -72.958527 84.405602 -21.852205 -89.859283 -15.440673 90.004829 7.657235 1.368682 -0.680529 181.286346 -90.000000 0.000000 
6.433153 92.675659 -7.868115 -1.679620 4.786383 -1.675112 -89.999992 -90.000000 0.000000 -0.057515 -0.713473 -1.739874 -0.312649 -2.363671 -5.808853 0.000000 0.000000 0.000000 0.000000 0.000000 0.000000 90.013329 -0.524322 -82.945930 15.833214 32.512825 65.706779 2.270146 23.050547 -6.407352 0.000000 0.000000 0.000000 -90.010796 0.547217 -82.641991 -9.681953 -33.063656 67.196411 -2.168080 -22.399590 -6.340472 0.000000 0.000000 0.000000 -76.349648 87.439224 -5.651274 89.985397 1.620360 89.998703 -5.546122 1.392823 0.674841 178.134476 90.000000 0.000000 -74.090126 84.514488 -20.425169 -89.862427 -15.128792 90.003929 7.863379 1.657717 -0.825906 181.136917 -90.000000 0.000000 
6.802376 92.706299 -7.681185 -1.630745 4.912332 -1.886436 -89.999992 -90.000000 0.000000 -0.075468 -0.668603 -1.813728 -0.368595 -2.210761 -6.055396 0.000000 0.000000 0.000000 0.000000 0.000000 0.000000 90.013344 -0.544425 -82.676208 15.843278 32.918896 65.194885 2.413367 24.188150 -6.468524 0.000000 0.000000 0.000000 -90.010368 0.544284 -82.681778 -10.127932 -32.817635 67.130051 -2.091382 -21.770281 -6.310111 0.000000 0.000000 0.000000 -68.513733 87.173241 -14.125145 89.972717 3.035424 89.998047 -5.657043 1.578980 0.766952 177.348846 90.000000 0.000000 -75.125137 84.599670 -19.128603 -89.865761 -14.794149 90.003006 8.220376 1.833223 -0.917251 180.796295 -90.000000 0.000000 
7.178799 92.735252 -7.480955 -1.630870 4.934330 -1.984421 -89.999992 -90.000000 0.000000 -0.099663 -0.605305 -1.879325 -0.441098 -1.995544 -6.274283 0.000000 0.000000 0.000000 0.000000 0.000000 0.000000 90.013596 -0.565547 -82.392761 15.612323 33.685146 64.794144 2.436458 24.377665 -6.477522 0.000000 0.000000 0.000000 -90.009735 0.539138 -82.751366 -10.652296 -32.477009 67.105247 -2.058312 -21.496380 -6.297352 0.000000 0.000000 0.000000 -64.016678 87.100731 -19.850824 89.948776 5.702738 89.997620 -6.257864 1.334848 0.662160 176.605225 90.000000 0.000000 -76.491531 84.774368 -17.410944 -89.869553 -14.409749 90.002037 8.635942 1.893400 -0.965678 180.411652 -90.000000 0.000000 
7.564922 92.746101 -7.270925 -1.683428 4.847138 -1.946908 -89.999992 -90.000000 0.000000 -0.124650 -0.522111 -1.937815 -0.511820 -1.714045 -6.468839 0.000000 0.000000 0.000000 0.000000 0.000000 0.000000 90.014030 -0.586109 -82.116730 15.436648 34.376766 64.368118 2.447771 24.475218 -6.481287 0.000000 0.000000 0.000000 -90.008949 0.532288 -82.843964 -11.410834 -31.833986 66.975739 -2.103510 -21.869223 -6.314984 0.000000 0.000000 0.000000 -59.011375 87.194031 -26.312553 89.920189 8.866526 89.998528 -7.029917 1.156059 0.586285 175.923019 90.000000 0.000000 -78.458237 85.082169 -15.068998 -89.872795 -14.078178 90.001244 9.013708 2.118512 -1.112806 180.145142 -90.000000 0.000000 
7.928445 92.734947 -7.055795 -1.793563 4.675077 -1.801313 -89.999992 -90.000000 0.000000 -0.145511 -0.421210 -1.990439 -0.564875 -1.374426 -6.642941 0.000000 0.000000 0.000000 0.000000 0.000000 0.000000 90.014694 -0.607192 -81.833595 15.524332 34.695976 63.791100 2.554924 25.314863 -6.528328 0.000000 0.000000 0.000000 -90.008087 0.524195 -82.953285 -12.318558 -30.971432 66.760269 -2.137873 -22.151531 -6.328537 0.000000 0.000000 0.000000 -52.075775 87.335709 -34.713074 89.891205 12.032711 90.001030 -7.649213 1.218652 0.621827 175.156693 90.000000 0.000000 -80.999840 85.488655 -12.111191 -89.875809 -13.768707 90.000534 9.255513 2.683933 -1.444043 180.043411 -90.000000 0.000000 
8.261868 92.721092 -6.804465 -1.963204 4.593050 -1.617235 -89.999992 -90.000000 0.000000 -0.160152 -0.307882 -2.039433 -0.594412 -0.994612 -6.804185 0.000000 0.000000 0.000000 0.000000 0.000000 0.000000 90.015755 -0.632079 -81.499107 15.775637 34.756638 63.216576 2.711194 26.515636 -6.599679 0.000000 0.000000 0.000000 -90.007172 0.515368 -83.072449 -13.195846 -30.119747 66.559311 -2.079937 -21.673233 -6.305982 0.000000 0.000000 0.000000 -44.164612 87.410881 -44.026421 89.862617 15.100298 90.005035 -7.918268 1.350023 0.681077 173.985275 90.000000 0.000000 -83.772842 85.889961 -8.821924 -89.879395 -13.395898 89.999771 9.343779 3.123564 -1.700304 180.030670 -90.000000 0.000000 
8.542591 92.727341 -6.555935 -2.112152 4.715511 -1.534860 -89.999992 -90.000000 0.000000 -0.169655 -0.189028 -2.088429 -0.605478 -0.597330 -6.965076 0.000000 0.000000 0.000000 0.000000 0.000000 0.000000 90.017586 -0.664331 -81.065376 15.862022 35.054070 62.851879 2.754251 26.851254 -6.618631 0.000000 0.000000 0.000000 -90.006256 0.506119 -83.197281 -13.857215 -29.539215 66.387253 -1.974804 -20.795984 -6.266295 0.000000 0.000000 0.000000 -37.713943 87.340797 -51.695679 89.837540 17.731064 90.009735 -7.658184 1.518522 0.744269 172.266266 90.000000 0.000000 -85.855347 86.143242 -6.254627 -89.882751 -13.044456 89.999084 9.377114 3.022322 -1.644760 180.031250 -90.000000 0.000000 
